<svg viewBox="0 0 400 150" xmlns="http://www.w3.org/2000/svg">
  <!-- Define styles for dark mode support -->
  <style>
    .text-color { fill: #fff; }
    .accent-color { fill: #ff3333; }
    
    @media (prefers-color-scheme: dark) {
      .text-color { fill: #000; }
      .accent-color { fill: #ff3333; }
    }
  </style>
  
  <!-- m (bigger) -->
  <path d="M 26 100 L 26 48 L 48 48 L 57 72 L 66 48 L 88 48 L 88 100 L 72 100 L 72 68 L 63 90 L 51 90 L 42 68 L 42 100 Z" class="text-color"/>
  
  <!-- k -->
  <path d="M 92 100 L 92 50 L 105 50 L 105 70 L 122 50 L 139 50 L 117 72 L 142 100 L 125 100 L 105 77 L 105 100 Z" class="text-color"/>
  
  <!-- 0 (stylized with hexagon shape - empty inside) -->
  <path d="M 143 60 L 161 50 L 179 60 L 179 90 L 161 100 L 143 90 Z" fill="none" stroke-width="13" class="text-color"/>
  
  <!-- x (with red accent) -->
  <path d="M 186 50 L 203 50 L 216 72 L 229 50 L 246 50 L 226 75 L 248 100 L 231 100 L 216 78 L 201 100 L 184 100 L 206 75 Z" class="text-color"/>
  <circle cx="216" cy="75" r="4" class="accent-color"/>
  
  <!-- Underline accent -->
  <rect x="30" y="108" width="218" height="3" class="accent-color"/>
  
  <!-- Dot accent on the side (2x bigger) -->
  <rect x="258" y="81" width="16" height="16" class="accent-color"/>
  <rect x="276" y="81" width="16" height="16" class="accent-color" opacity="0.6"/>
</svg>
