<svg version="1.1" id="Layer_1" xmlns="http://www.w3.org/2000/svg" xmlns:xlink="http://www.w3.org/1999/xlink" x="0px" y="0px"
	 width="100%" viewBox="0 0 1024 672" enable-background="new 0 0 1024 672" xml:space="preserve">
<path fill="#000000" opacity="1.000000" stroke="none" 
	d="
M438.002686,420.035614 
	C433.671478,420.028381 429.830902,419.857574 426.010376,420.062073 
	C422.435455,420.253418 420.623352,418.765839 419.460663,415.398682 
	C415.060028,402.654266 410.192657,390.067261 405.984894,377.262024 
	C404.432404,372.537476 401.928131,371.250885 397.247772,371.332947 
	C376.930908,371.689209 356.608612,371.761688 336.287903,371.852722 
	C331.296021,371.875092 326.293091,371.721222 321.312836,371.386749 
	C316.809509,371.084259 314.371582,372.811615 312.886353,377.230743 
	C308.539124,390.165222 303.746399,402.949524 299.187073,415.813538 
	C298.361115,418.143860 297.500458,420.070435 294.491821,420.052795 
	C280.165588,419.968994 265.838776,419.985718 251.512344,419.926392 
	C250.718857,419.923096 249.926880,419.558411 249.284409,419.399170 
	C248.174911,417.687958 249.034302,416.334167 249.545685,414.960846 
	C276.323181,343.051147 303.122345,271.149536 329.825531,199.212265 
	C331.067047,195.867630 332.812805,194.635223 336.404816,194.675980 
	C351.730103,194.849899 367.059937,194.842499 382.385162,194.658600 
	C386.254547,194.612167 388.239716,195.689377 389.681671,199.577347 
	C414.848755,267.434662 440.190521,335.227173 465.502228,403.030853 
	C467.415039,408.154785 469.387939,413.256287 471.904236,419.869781 
	C460.158264,419.928192 449.330170,419.982025 438.002686,420.035614 
M351.306519,268.686646 
	C343.645386,290.073090 335.984283,311.459564 328.124634,333.400208 
	C349.430359,333.400208 369.722229,333.400208 390.808289,333.400208 
	C380.449005,304.242767 370.352356,275.824615 360.255737,247.406479 
	C359.858215,247.420166 359.460663,247.433838 359.063110,247.447510 
	C356.544739,254.275528 354.026367,261.103546 351.306519,268.686646 
z"/>
<path fill="#000000" opacity="1.000000" stroke="none" 
	d="
M741.922241,268.653076 
	C744.216431,270.902222 741.828918,272.043793 740.968079,273.286743 
	C725.987671,294.916992 710.985535,316.533234 695.791016,338.013092 
	C693.382812,341.417511 693.401001,343.771362 695.789795,347.231995 
	C711.020630,369.297363 726.009338,391.530029 741.029724,413.740082 
	C742.094543,415.314606 743.795715,416.698273 743.435974,419.013458 
	C741.704285,420.523834 739.615662,419.998413 737.692200,420.007996 
	C725.699036,420.067810 713.695801,419.765381 701.716492,420.179047 
	C696.270264,420.367096 693.331726,418.261444 690.623230,413.773712 
	C682.547058,400.392426 674.009766,387.289520 665.661743,374.092407 
	C663.138062,374.912354 662.531311,376.998901 661.477722,378.589294 
	C653.200195,391.083649 644.970764,403.610077 636.791748,416.169159 
	C635.364380,418.360901 633.956665,420.102509 630.964783,420.079865 
	C617.473083,419.977692 603.980286,420.017914 590.487976,419.980255 
	C589.340088,419.977051 588.130981,419.954742 587.240356,418.804047 
	C587.073792,416.653351 588.707092,415.253510 589.768921,413.665802 
	C604.487976,391.656372 619.186340,369.632202 634.087952,347.746613 
	C636.494629,344.211945 636.732849,341.627747 634.232239,337.970612 
	C619.944763,317.074707 605.898499,296.013733 591.807312,274.984009 
	C590.632996,273.231476 588.922913,271.719818 588.776855,269.405273 
	C590.066895,267.832031 591.825684,268.131134 593.439087,268.139435 
	C606.594910,268.207184 619.751770,268.447815 632.905457,268.325806 
	C636.077576,268.296387 637.720825,269.554352 639.296997,271.991089 
	C646.171021,282.618195 653.157715,293.172791 660.157532,303.717834 
	C661.683411,306.016541 662.884155,308.638092 665.594421,310.311584 
	C669.592529,305.782104 672.179993,300.541595 675.335144,295.702942 
	C680.519409,287.752472 685.576050,279.716583 690.549805,271.632599 
	C691.902954,269.433319 693.509216,268.127197 696.123352,268.153381 
	C711.273010,268.305084 726.431030,267.568756 741.922241,268.653076 
z"/>
<path fill="#000000" opacity="1.000000" stroke="none" 
	d="
M482.653931,397.999847 
	C482.653503,356.700226 482.650269,315.900574 482.656830,275.100922 
	C482.657959,268.204773 482.695953,268.129486 489.602783,268.101074 
	C500.093872,268.057892 510.592529,268.334167 521.073608,268.010376 
	C526.228027,267.851105 527.714844,269.710114 527.466614,274.669708 
	C527.226257,279.469696 526.637512,284.440948 528.204956,289.622864 
	C531.197205,288.276611 532.381042,285.975342 533.997009,284.191681 
	C545.762512,271.204803 560.768982,266.921387 577.724060,267.671722 
	C580.364319,267.788574 581.178162,269.172028 581.177795,271.500488 
	C581.175903,282.491028 581.150574,293.481689 581.207031,304.471985 
	C581.223389,307.656891 579.440186,308.241974 576.724426,308.344238 
	C570.089600,308.594086 563.472961,308.434906 556.807983,309.061432 
	C537.710083,310.856689 528.416199,327.855591 528.342651,342.132843 
	C528.220032,365.945862 528.169800,389.761353 528.408508,413.572601 
	C528.459106,418.618042 526.960876,420.307861 521.908569,420.165222 
	C510.759583,419.850464 499.592377,419.865234 488.440704,420.111908 
	C483.761292,420.215424 482.296112,418.483490 482.581421,413.982300 
	C482.907288,408.840576 482.655304,403.662231 482.653931,397.999847 
z"/>
<path fill="#000000" opacity="1.000000" stroke="none" 
	d="
M755.090637,401.451874 
	C751.341431,387.505493 755.174133,375.388245 765.368408,368.122131 
	C775.169678,361.136108 788.595886,360.842834 798.770447,367.392487 
	C809.223755,374.121521 813.958496,386.277161 811.159363,399.198792 
	C808.962891,409.338074 799.114685,418.541962 788.678894,420.208344 
	C775.343628,422.337708 763.341187,416.901611 757.154724,405.891205 
	C756.423401,404.589630 755.870361,403.187805 755.090637,401.451874 
z"/>
</svg>